<svg width="34" height="34" viewBox="0 0 34 34" fill="none" xmlns="http://www.w3.org/2000/svg">
<path d="M7.15789 17C7.15789 11.5644 11.5644 7.15789 17 7.15789C22.4356 7.15789 26.8421 11.5644 26.8421 17C26.8421 17.6434 26.7804 18.2723 26.6625 18.8813C27.0116 18.8209 27.3705 18.7895 27.7368 18.7895C30.1092 18.7895 32.1735 20.1085 33.2364 22.0531C33.7327 20.4568 34 18.7596 34 17C34 7.61116 26.3888 0 17 0C7.61116 0 0 7.61116 0 17C0 26.3888 7.61116 34 17 34C20.4727 34 23.7022 32.9587 26.3934 31.1714C23.8009 30.6047 21.8089 28.4325 21.512 25.7493C20.1604 26.4477 18.6263 26.8421 17 26.8421C11.5644 26.8421 7.15789 22.4356 7.15789 17Z" fill="black"/>
<path d="M31.3158 25.0526C31.3158 27.0292 29.7134 28.6316 27.7368 28.6316C25.7602 28.6316 24.1579 27.0292 24.1579 25.0526C24.1579 23.076 25.7602 21.4737 27.7368 21.4737C29.7134 21.4737 31.3158 23.076 31.3158 25.0526Z" fill="black"/>
</svg>
