<svg width="100" height="100" viewBox="0 0 100 100" fill="none" xmlns="http://www.w3.org/2000/svg">
<g clip-path="url(#clip0_305_24)">
<g filter="url(#filter0_d_305_24)">
<path d="M7.40741 54.1482C11.4984 54.1482 14.8148 50.8317 14.8148 46.7408C14.8148 42.6498 11.4984 39.3333 7.40741 39.3333C3.31641 39.3333 0 42.6498 0 46.7408C0 50.8317 3.31641 54.1482 7.40741 54.1482Z" fill="url(#paint0_radial_305_24)"/>
<path d="M92.5926 54.1482C88.5016 54.1482 85.1852 50.8317 85.1852 46.7408C85.1852 42.6498 88.5016 39.3333 92.5926 39.3333C96.6836 39.3333 100 42.6498 100 46.7408C100 50.8317 96.6836 54.1482 92.5926 54.1482Z" fill="url(#paint1_radial_305_24)"/>
<path d="M50.0001 94.8889C74.5461 94.8889 94.4445 74.9904 94.4445 50.4444C94.4445 25.8985 74.5461 6 50.0001 6C25.4541 6 5.55566 25.8985 5.55566 50.4444C5.55566 74.9904 25.4541 94.8889 50.0001 94.8889Z" fill="url(#paint2_radial_305_24)"/>
<path d="M50.0001 94.8889C74.5461 94.8889 94.4445 74.9904 94.4445 50.4444C94.4445 25.8985 74.5461 6 50.0001 6C25.4541 6 5.55566 25.8985 5.55566 50.4444C5.55566 74.9904 25.4541 94.8889 50.0001 94.8889Z" fill="url(#paint3_radial_305_24)"/>
<g filter="url(#filter1_f_305_24)">
<path d="M47.2223 87.4816C70.2343 87.4816 88.8891 68.8269 88.8891 45.8149C88.8891 41.4752 88.2256 37.2904 86.9946 33.3564C89.399 38.5531 90.7406 44.342 90.7406 50.4443C90.7406 72.9449 72.5004 91.1851 49.9999 91.1851C36.7281 91.1851 24.9387 84.8391 17.5002 75.0161C25.06 82.7099 35.5839 87.4816 47.2223 87.4816Z" fill="#C1092A" fill-opacity="0.8"/>
</g>
<g filter="url(#filter2_diii_305_24)">
<path fill-rule="evenodd" clip-rule="evenodd" d="M45.3742 58.4736C47.5696 59.4776 49.9935 60.586 52.893 61.7581C58.8423 64.1632 62.69 63.8184 65.5761 62.5864C68.5338 61.3239 70.8321 59.0219 73.55 56.2997C73.6863 56.1633 73.8234 56.0259 73.9617 55.8876C75.0466 54.8028 76.8054 54.8028 77.8901 55.8875C78.9749 56.9724 78.9749 58.7312 77.8902 59.816C77.6982 60.008 77.5034 60.2038 77.3057 60.4027C74.7702 62.9527 71.7477 65.9925 67.7572 67.6959C63.236 69.6258 57.8245 69.744 50.8108 66.9087C47.7908 65.6879 45.2606 64.5307 43.0703 63.5288C42.8609 63.4331 42.6547 63.3388 42.4514 63.246C40.0916 62.1683 38.1958 61.3233 36.3896 60.7207C32.9785 59.583 29.8144 59.2799 24.7479 60.5465C23.2595 60.9187 21.7513 60.0138 21.3792 58.5255C21.0072 57.0372 21.9121 55.5291 23.4004 55.157C29.4448 53.6457 33.6882 53.9632 38.1475 55.4507C40.2766 56.1608 42.4315 57.1295 44.7593 58.1925C44.9623 58.2852 45.1673 58.379 45.3742 58.4736Z" fill="#894819"/>
</g>
<g filter="url(#filter3_ii_305_24)">
<path fill-rule="evenodd" clip-rule="evenodd" d="M51.8518 26.3704C51.8518 33.5296 57.6555 39.3333 64.8148 39.3333C71.974 39.3333 77.7777 33.5296 77.7777 26.3704H51.8518Z" fill="white"/>
</g>
<g filter="url(#filter4_ii_305_24)">
<path fill-rule="evenodd" clip-rule="evenodd" d="M22.2222 26.3704C22.2222 33.5296 28.0259 39.3333 35.1851 39.3333C42.3444 39.3333 48.1481 33.5296 48.1481 26.3704H22.2222Z" fill="white"/>
</g>
<g filter="url(#filter5_iii_305_24)">
<path d="M29.9457 26.3704C29.741 26.9495 29.6296 27.5729 29.6296 28.2222C29.6296 31.2905 32.1169 33.7778 35.1852 33.7778C38.2535 33.7778 40.7407 31.2905 40.7407 28.2222C40.7407 27.5729 40.6294 26.9495 40.4247 26.3704H29.9457Z" fill="url(#paint4_linear_305_24)"/>
</g>
<g filter="url(#filter6_iii_305_24)">
<path d="M59.5754 26.3704C59.3706 26.9495 59.2593 27.5729 59.2593 28.2222C59.2593 31.2905 61.7465 33.7778 64.8148 33.7778C67.8831 33.7778 70.3704 31.2905 70.3704 28.2222C70.3704 27.5729 70.259 26.9495 70.0543 26.3704H59.5754Z" fill="url(#paint5_linear_305_24)"/>
</g>
</g>
</g>
<defs>
<filter id="filter0_d_305_24" x="-4" y="6" width="108" height="96.8889" filterUnits="userSpaceOnUse" color-interpolation-filters="sRGB">
<feFlood flood-opacity="0" result="BackgroundImageFix"/>
<feColorMatrix in="SourceAlpha" type="matrix" values="0 0 0 0 0 0 0 0 0 0 0 0 0 0 0 0 0 0 127 0" result="hardAlpha"/>
<feOffset dy="4"/>
<feGaussianBlur stdDeviation="2"/>
<feComposite in2="hardAlpha" operator="out"/>
<feColorMatrix type="matrix" values="0 0 0 0 0 0 0 0 0 0 0 0 0 0 0 0 0 0 0.25 0"/>
<feBlend mode="normal" in2="BackgroundImageFix" result="effect1_dropShadow_305_24"/>
<feBlend mode="normal" in="SourceGraphic" in2="effect1_dropShadow_305_24" result="shape"/>
</filter>
<filter id="filter1_f_305_24" x="-78.4998" y="-62.6436" width="265.24" height="249.829" filterUnits="userSpaceOnUse" color-interpolation-filters="sRGB">
<feFlood flood-opacity="0" result="BackgroundImageFix"/>
<feBlend mode="normal" in="SourceGraphic" in2="BackgroundImageFix" result="shape"/>
<feGaussianBlur stdDeviation="48" result="effect1_foregroundBlur_305_24"/>
</filter>
<filter id="filter2_diii_305_24" x="-10.7043" y="38.1677" width="121.408" height="78.9304" filterUnits="userSpaceOnUse" color-interpolation-filters="sRGB">
<feFlood flood-opacity="0" result="BackgroundImageFix"/>
<feColorMatrix in="SourceAlpha" type="matrix" values="0 0 0 0 0 0 0 0 0 0 0 0 0 0 0 0 0 0 127 0" result="hardAlpha"/>
<feOffset dy="16"/>
<feGaussianBlur stdDeviation="16"/>
<feColorMatrix type="matrix" values="0 0 0 0 0.282353 0 0 0 0 0.054902 0 0 0 0 0.301961 0 0 0 0.2 0"/>
<feBlend mode="normal" in2="BackgroundImageFix" result="effect1_dropShadow_305_24"/>
<feBlend mode="normal" in="SourceGraphic" in2="effect1_dropShadow_305_24" result="shape"/>
<feColorMatrix in="SourceAlpha" type="matrix" values="0 0 0 0 0 0 0 0 0 0 0 0 0 0 0 0 0 0 127 0" result="hardAlpha"/>
<feOffset dy="4"/>
<feGaussianBlur stdDeviation="4"/>
<feComposite in2="hardAlpha" operator="arithmetic" k2="-1" k3="1"/>
<feColorMatrix type="matrix" values="0 0 0 0 0.282353 0 0 0 0 0.054902 0 0 0 0 0.301961 0 0 0 0.2 0"/>
<feBlend mode="normal" in2="shape" result="effect2_innerShadow_305_24"/>
<feColorMatrix in="SourceAlpha" type="matrix" values="0 0 0 0 0 0 0 0 0 0 0 0 0 0 0 0 0 0 127 0" result="hardAlpha"/>
<feOffset dx="6" dy="6"/>
<feGaussianBlur stdDeviation="16"/>
<feComposite in2="hardAlpha" operator="arithmetic" k2="-1" k3="1"/>
<feColorMatrix type="matrix" values="0 0 0 0 0.76276 0 0 0 0 0.388636 0 0 0 0 0.122215 0 0 0 1 0"/>
<feBlend mode="normal" in2="effect2_innerShadow_305_24" result="effect3_innerShadow_305_24"/>
<feColorMatrix in="SourceAlpha" type="matrix" values="0 0 0 0 0 0 0 0 0 0 0 0 0 0 0 0 0 0 127 0" result="hardAlpha"/>
<feOffset dx="-6" dy="-6"/>
<feGaussianBlur stdDeviation="16"/>
<feComposite in2="hardAlpha" operator="arithmetic" k2="-1" k3="1"/>
<feColorMatrix type="matrix" values="0 0 0 0 0.354427 0 0 0 0 0.180009 0 0 0 0 0.0538352 0 0 0 1 0"/>
<feBlend mode="normal" in2="effect3_innerShadow_305_24" result="effect4_innerShadow_305_24"/>
</filter>
<filter id="filter3_ii_305_24" x="51.8518" y="26.3704" width="25.926" height="28.963" filterUnits="userSpaceOnUse" color-interpolation-filters="sRGB">
<feFlood flood-opacity="0" result="BackgroundImageFix"/>
<feBlend mode="normal" in="SourceGraphic" in2="BackgroundImageFix" result="shape"/>
<feColorMatrix in="SourceAlpha" type="matrix" values="0 0 0 0 0 0 0 0 0 0 0 0 0 0 0 0 0 0 127 0" result="hardAlpha"/>
<feOffset dy="16"/>
<feGaussianBlur stdDeviation="16"/>
<feComposite in2="hardAlpha" operator="arithmetic" k2="-1" k3="1"/>
<feColorMatrix type="matrix" values="0 0 0 0 0.282353 0 0 0 0 0.054902 0 0 0 0 0.301961 0 0 0 0.2 0"/>
<feBlend mode="normal" in2="shape" result="effect1_innerShadow_305_24"/>
<feColorMatrix in="SourceAlpha" type="matrix" values="0 0 0 0 0 0 0 0 0 0 0 0 0 0 0 0 0 0 127 0" result="hardAlpha"/>
<feOffset dy="2"/>
<feGaussianBlur stdDeviation="4"/>
<feComposite in2="hardAlpha" operator="arithmetic" k2="-1" k3="1"/>
<feColorMatrix type="matrix" values="0 0 0 0 0.282353 0 0 0 0 0.054902 0 0 0 0 0.301961 0 0 0 0.2 0"/>
<feBlend mode="normal" in2="effect1_innerShadow_305_24" result="effect2_innerShadow_305_24"/>
</filter>
<filter id="filter4_ii_305_24" x="22.2222" y="26.3704" width="25.926" height="28.963" filterUnits="userSpaceOnUse" color-interpolation-filters="sRGB">
<feFlood flood-opacity="0" result="BackgroundImageFix"/>
<feBlend mode="normal" in="SourceGraphic" in2="BackgroundImageFix" result="shape"/>
<feColorMatrix in="SourceAlpha" type="matrix" values="0 0 0 0 0 0 0 0 0 0 0 0 0 0 0 0 0 0 127 0" result="hardAlpha"/>
<feOffset dy="16"/>
<feGaussianBlur stdDeviation="16"/>
<feComposite in2="hardAlpha" operator="arithmetic" k2="-1" k3="1"/>
<feColorMatrix type="matrix" values="0 0 0 0 0.282353 0 0 0 0 0.054902 0 0 0 0 0.301961 0 0 0 0.2 0"/>
<feBlend mode="normal" in2="shape" result="effect1_innerShadow_305_24"/>
<feColorMatrix in="SourceAlpha" type="matrix" values="0 0 0 0 0 0 0 0 0 0 0 0 0 0 0 0 0 0 127 0" result="hardAlpha"/>
<feOffset dy="2"/>
<feGaussianBlur stdDeviation="4"/>
<feComposite in2="hardAlpha" operator="arithmetic" k2="-1" k3="1"/>
<feColorMatrix type="matrix" values="0 0 0 0 0.282353 0 0 0 0 0.054902 0 0 0 0 0.301961 0 0 0 0.2 0"/>
<feBlend mode="normal" in2="effect1_innerShadow_305_24" result="effect2_innerShadow_305_24"/>
</filter>
<filter id="filter5_iii_305_24" x="29.6296" y="26.3704" width="15.1111" height="11.4074" filterUnits="userSpaceOnUse" color-interpolation-filters="sRGB">
<feFlood flood-opacity="0" result="BackgroundImageFix"/>
<feBlend mode="normal" in="SourceGraphic" in2="BackgroundImageFix" result="shape"/>
<feColorMatrix in="SourceAlpha" type="matrix" values="0 0 0 0 0 0 0 0 0 0 0 0 0 0 0 0 0 0 127 0" result="hardAlpha"/>
<feOffset dy="4"/>
<feGaussianBlur stdDeviation="4"/>
<feComposite in2="hardAlpha" operator="arithmetic" k2="-1" k3="1"/>
<feColorMatrix type="matrix" values="0 0 0 0 0.356863 0 0 0 0 0.0313726 0 0 0 0 0.384314 0 0 0 0.4 0"/>
<feBlend mode="normal" in2="shape" result="effect1_innerShadow_305_24"/>
<feColorMatrix in="SourceAlpha" type="matrix" values="0 0 0 0 0 0 0 0 0 0 0 0 0 0 0 0 0 0 127 0" result="hardAlpha"/>
<feOffset dy="2"/>
<feGaussianBlur stdDeviation="2"/>
<feComposite in2="hardAlpha" operator="arithmetic" k2="-1" k3="1"/>
<feColorMatrix type="matrix" values="0 0 0 0 0.356863 0 0 0 0 0.0313726 0 0 0 0 0.384314 0 0 0 0.2 0"/>
<feBlend mode="normal" in2="effect1_innerShadow_305_24" result="effect2_innerShadow_305_24"/>
<feColorMatrix in="SourceAlpha" type="matrix" values="0 0 0 0 0 0 0 0 0 0 0 0 0 0 0 0 0 0 127 0" result="hardAlpha"/>
<feOffset dx="4" dy="4"/>
<feGaussianBlur stdDeviation="6"/>
<feComposite in2="hardAlpha" operator="arithmetic" k2="-1" k3="1"/>
<feColorMatrix type="matrix" values="0 0 0 0 0.704427 0 0 0 0 0.418173 0 0 0 0 0.227338 0 0 0 0.4 0"/>
<feBlend mode="normal" in2="effect2_innerShadow_305_24" result="effect3_innerShadow_305_24"/>
</filter>
<filter id="filter6_iii_305_24" x="59.2593" y="26.3704" width="15.1111" height="11.4074" filterUnits="userSpaceOnUse" color-interpolation-filters="sRGB">
<feFlood flood-opacity="0" result="BackgroundImageFix"/>
<feBlend mode="normal" in="SourceGraphic" in2="BackgroundImageFix" result="shape"/>
<feColorMatrix in="SourceAlpha" type="matrix" values="0 0 0 0 0 0 0 0 0 0 0 0 0 0 0 0 0 0 127 0" result="hardAlpha"/>
<feOffset dy="4"/>
<feGaussianBlur stdDeviation="4"/>
<feComposite in2="hardAlpha" operator="arithmetic" k2="-1" k3="1"/>
<feColorMatrix type="matrix" values="0 0 0 0 0.356863 0 0 0 0 0.0313726 0 0 0 0 0.384314 0 0 0 0.4 0"/>
<feBlend mode="normal" in2="shape" result="effect1_innerShadow_305_24"/>
<feColorMatrix in="SourceAlpha" type="matrix" values="0 0 0 0 0 0 0 0 0 0 0 0 0 0 0 0 0 0 127 0" result="hardAlpha"/>
<feOffset dy="2"/>
<feGaussianBlur stdDeviation="2"/>
<feComposite in2="hardAlpha" operator="arithmetic" k2="-1" k3="1"/>
<feColorMatrix type="matrix" values="0 0 0 0 0.356863 0 0 0 0 0.0313726 0 0 0 0 0.384314 0 0 0 0.2 0"/>
<feBlend mode="normal" in2="effect1_innerShadow_305_24" result="effect2_innerShadow_305_24"/>
<feColorMatrix in="SourceAlpha" type="matrix" values="0 0 0 0 0 0 0 0 0 0 0 0 0 0 0 0 0 0 127 0" result="hardAlpha"/>
<feOffset dx="4" dy="4"/>
<feGaussianBlur stdDeviation="6"/>
<feComposite in2="hardAlpha" operator="arithmetic" k2="-1" k3="1"/>
<feColorMatrix type="matrix" values="0 0 0 0 0.704427 0 0 0 0 0.418173 0 0 0 0 0.227338 0 0 0 0.4 0"/>
<feBlend mode="normal" in2="effect2_innerShadow_305_24" result="effect3_innerShadow_305_24"/>
</filter>
<radialGradient id="paint0_radial_305_24" cx="0" cy="0" r="1" gradientUnits="userSpaceOnUse" gradientTransform="translate(1.85185 43.963) rotate(61.3895) scale(11.6019)">
<stop stop-color="#FFCE21"/>
<stop offset="1" stop-color="#E9A326"/>
</radialGradient>
<radialGradient id="paint1_radial_305_24" cx="0" cy="0" r="1" gradientUnits="userSpaceOnUse" gradientTransform="translate(90.7407 51.3704) rotate(118.611) scale(11.6019)">
<stop stop-color="#FFCE21"/>
<stop offset="1" stop-color="#E9A326"/>
</radialGradient>
<radialGradient id="paint2_radial_305_24" cx="0" cy="0" r="1" gradientUnits="userSpaceOnUse" gradientTransform="translate(34.2594 17.1111) rotate(78.559) scale(79.3546)">
<stop stop-color="#FFF7D9"/>
<stop offset="0.122763" stop-color="#FFE690"/>
<stop offset="0.518601" stop-color="#FFCE22"/>
<stop offset="1" stop-color="#FFB422"/>
</radialGradient>
<radialGradient id="paint3_radial_305_24" cx="0" cy="0" r="1" gradientUnits="userSpaceOnUse" gradientTransform="translate(34.2594 17.1111) rotate(78.559) scale(79.3546)">
<stop offset="0.857147" stop-color="#EDFF22" stop-opacity="0"/>
<stop offset="1" stop-color="#FF24F6" stop-opacity="0.3"/>
</radialGradient>
<linearGradient id="paint4_linear_305_24" x1="31.4815" y1="26.9876" x2="35.557" y2="35.3933" gradientUnits="userSpaceOnUse">
<stop stop-color="#4E280E"/>
<stop offset="1" stop-color="#281304"/>
</linearGradient>
<linearGradient id="paint5_linear_305_24" x1="61.1111" y1="26.9876" x2="65.1866" y2="35.3933" gradientUnits="userSpaceOnUse">
<stop stop-color="#4E280E"/>
<stop offset="1" stop-color="#281304"/>
</linearGradient>
<clipPath id="clip0_305_24">
<rect width="100" height="100" fill="white"/>
</clipPath>
</defs>
</svg>
