<svg width="100" height="100" viewBox="0 0 100 100" fill="none" xmlns="http://www.w3.org/2000/svg">
<g clip-path="url(#clip0_301_17)">
<path d="M7.40741 55.4266C11.4984 55.4266 14.8148 52.1102 14.8148 48.0192C14.8148 43.9282 11.4984 40.6118 7.40741 40.6118C3.31641 40.6118 0 43.9282 0 48.0192C0 52.1102 3.31641 55.4266 7.40741 55.4266Z" fill="url(#paint0_radial_301_17)"/>
<path d="M92.5926 55.4266C88.5016 55.4266 85.1852 52.1102 85.1852 48.0192C85.1852 43.9282 88.5016 40.6118 92.5926 40.6118C96.6836 40.6118 100 43.9282 100 48.0192C100 52.1102 96.6836 55.4266 92.5926 55.4266Z" fill="url(#paint1_radial_301_17)"/>
<path d="M50.0001 96.1673C74.5461 96.1673 94.4445 76.2689 94.4445 51.7229C94.4445 27.1769 74.5461 7.27844 50.0001 7.27844C25.4541 7.27844 5.55566 27.1769 5.55566 51.7229C5.55566 76.2689 25.4541 96.1673 50.0001 96.1673Z" fill="url(#paint2_radial_301_17)"/>
<path d="M50.0001 96.1673C74.5461 96.1673 94.4445 76.2689 94.4445 51.7229C94.4445 27.1769 74.5461 7.27844 50.0001 7.27844C25.4541 7.27844 5.55566 27.1769 5.55566 51.7229C5.55566 76.2689 25.4541 96.1673 50.0001 96.1673Z" fill="url(#paint3_radial_301_17)"/>
<g filter="url(#filter0_f_301_17)">
<path d="M47.2224 88.7601C70.2343 88.7601 88.8891 70.1053 88.8891 47.0934C88.8891 42.7537 88.2256 38.5689 86.9946 34.6348C89.399 39.8316 90.7406 45.6205 90.7406 51.7228C90.7406 74.2234 72.5004 92.4635 49.9999 92.4635C36.7281 92.4635 24.9387 86.1176 17.5002 76.2945C25.06 83.9883 35.5839 88.7601 47.2224 88.7601Z" fill="#C1092A" fill-opacity="0.6"/>
</g>
<g filter="url(#filter1_di_301_17)">
<path d="M50 75.7969C64.7379 75.7969 76.9972 65.3327 79.5552 51.5274C80.0975 48.6006 77.5998 46.1673 74.5828 46.1673H25.4173C22.4002 46.1673 19.9026 48.6006 20.4448 51.5274C23.0028 65.3327 35.2622 75.7969 50 75.7969Z" fill="url(#paint4_linear_301_17)"/>
</g>
<g filter="url(#filter2_i_301_17)">
<path d="M70.1141 68.1787C64.7886 72.9142 57.7359 75.797 50.0005 75.797C42.2648 75.797 35.2119 72.914 29.8865 68.1782C31.4394 61.9995 39.8534 57.2784 50.0003 57.2784C60.1472 57.2784 68.5615 61.9997 70.1141 68.1787Z" fill="url(#paint5_linear_301_17)"/>
</g>
<g filter="url(#filter3_i_301_17)">
<path d="M28.308 5.00041C27.7535 4.19393 26.7462 3.82495 25.7951 4.0797C24.844 4.33456 24.1563 5.15782 24.0792 6.13352L22.2792 13.3741L14.4115 17.0237C13.4249 17.288 12.7259 18.1621 12.6899 19.1767C12.6539 20.1912 13.2894 21.1076 14.2551 21.4339L21.8998 25.4077L21.9906 32.5952C21.9124 33.5859 22.481 34.5129 23.4017 34.8959C24.3223 35.2788 25.3883 35.0318 26.0471 34.2826L32.0569 27.449L40.6782 30.3622C41.6234 30.6815 42.67 30.3626 43.2759 29.5706C43.8818 28.7785 43.9107 27.6915 43.3477 26.8726L39.8323 20.6027L44.4662 13.3388C45.1394 12.5734 45.2314 11.4621 44.6929 10.6015C44.1545 9.74081 43.1122 9.3334 42.1256 9.59775L33.4869 10.371L28.308 5.00041Z" fill="url(#paint6_linear_301_17)"/>
</g>
<g filter="url(#filter4_i_301_17)">
<path d="M71.6918 5.00041C72.2463 4.19393 73.2536 3.82495 74.2046 4.0797C75.1558 4.33456 75.8435 5.15782 75.9206 6.13352L77.7206 13.3741L85.5883 17.0237C86.5749 17.288 87.2738 18.1621 87.3098 19.1767C87.3458 20.1912 86.7104 21.1076 85.7447 21.4339L78.1 25.4077L78.0091 32.5952C78.0874 33.5859 77.5187 34.5129 76.598 34.8959C75.6774 35.2788 74.6115 35.0318 73.9527 34.2826L67.9428 27.449L59.3215 30.3622C58.3764 30.6815 57.3297 30.3626 56.7238 29.5706C56.1179 28.7785 56.0891 27.6915 56.6521 26.8726L60.1675 20.6027L55.5336 13.3388C54.8604 12.5734 54.7684 11.4621 55.3068 10.6015C55.8453 9.74081 56.8876 9.3334 57.8742 9.59775L66.5128 10.371L71.6918 5.00041Z" fill="url(#paint7_linear_301_17)"/>
</g>
</g>
<defs>
<filter id="filter0_f_301_17" x="-54.4998" y="-37.3652" width="217.24" height="201.829" filterUnits="userSpaceOnUse" color-interpolation-filters="sRGB">
<feFlood flood-opacity="0" result="BackgroundImageFix"/>
<feBlend mode="normal" in="SourceGraphic" in2="BackgroundImageFix" result="shape"/>
<feGaussianBlur stdDeviation="36" result="effect1_foregroundBlur_301_17"/>
</filter>
<filter id="filter1_di_301_17" x="12.3704" y="38.1673" width="91.2593" height="61.6296" filterUnits="userSpaceOnUse" color-interpolation-filters="sRGB">
<feFlood flood-opacity="0" result="BackgroundImageFix"/>
<feColorMatrix in="SourceAlpha" type="matrix" values="0 0 0 0 0 0 0 0 0 0 0 0 0 0 0 0 0 0 127 0" result="hardAlpha"/>
<feOffset dx="8" dy="8"/>
<feGaussianBlur stdDeviation="8"/>
<feColorMatrix type="matrix" values="0 0 0 0 1 0 0 0 0 0.87451 0 0 0 0 0.423529 0 0 0 1 0"/>
<feBlend mode="normal" in2="BackgroundImageFix" result="effect1_dropShadow_301_17"/>
<feBlend mode="normal" in="SourceGraphic" in2="effect1_dropShadow_301_17" result="shape"/>
<feColorMatrix in="SourceAlpha" type="matrix" values="0 0 0 0 0 0 0 0 0 0 0 0 0 0 0 0 0 0 127 0" result="hardAlpha"/>
<feOffset dx="16" dy="16"/>
<feGaussianBlur stdDeviation="16"/>
<feComposite in2="hardAlpha" operator="arithmetic" k2="-1" k3="1"/>
<feColorMatrix type="matrix" values="0 0 0 0 0 0 0 0 0 0 0 0 0 0 0 0 0 0 0.25 0"/>
<feBlend mode="normal" in2="shape" result="effect2_innerShadow_301_17"/>
</filter>
<filter id="filter2_i_301_17" x="29.8865" y="57.2784" width="40.2278" height="26.5185" filterUnits="userSpaceOnUse" color-interpolation-filters="sRGB">
<feFlood flood-opacity="0" result="BackgroundImageFix"/>
<feBlend mode="normal" in="SourceGraphic" in2="BackgroundImageFix" result="shape"/>
<feColorMatrix in="SourceAlpha" type="matrix" values="0 0 0 0 0 0 0 0 0 0 0 0 0 0 0 0 0 0 127 0" result="hardAlpha"/>
<feOffset dy="8"/>
<feGaussianBlur stdDeviation="8"/>
<feComposite in2="hardAlpha" operator="arithmetic" k2="-1" k3="1"/>
<feColorMatrix type="matrix" values="0 0 0 0 0.51276 0 0 0 0 0.0415645 0 0 0 0 0.0415645 0 0 0 0.4 0"/>
<feBlend mode="normal" in2="shape" result="effect1_innerShadow_301_17"/>
</filter>
<filter id="filter3_i_301_17" x="12.6885" y="4" width="32.3533" height="47.0742" filterUnits="userSpaceOnUse" color-interpolation-filters="sRGB">
<feFlood flood-opacity="0" result="BackgroundImageFix"/>
<feBlend mode="normal" in="SourceGraphic" in2="BackgroundImageFix" result="shape"/>
<feColorMatrix in="SourceAlpha" type="matrix" values="0 0 0 0 0 0 0 0 0 0 0 0 0 0 0 0 0 0 127 0" result="hardAlpha"/>
<feOffset dy="16"/>
<feGaussianBlur stdDeviation="8"/>
<feComposite in2="hardAlpha" operator="arithmetic" k2="-1" k3="1"/>
<feColorMatrix type="matrix" values="0 0 0 0 0.68776 0 0 0 0 0.0242277 0 0 0 0 0.501971 0 0 0 0.4 0"/>
<feBlend mode="normal" in2="shape" result="effect1_innerShadow_301_17"/>
</filter>
<filter id="filter4_i_301_17" x="54.958" y="4" width="32.3533" height="47.0742" filterUnits="userSpaceOnUse" color-interpolation-filters="sRGB">
<feFlood flood-opacity="0" result="BackgroundImageFix"/>
<feBlend mode="normal" in="SourceGraphic" in2="BackgroundImageFix" result="shape"/>
<feColorMatrix in="SourceAlpha" type="matrix" values="0 0 0 0 0 0 0 0 0 0 0 0 0 0 0 0 0 0 127 0" result="hardAlpha"/>
<feOffset dy="16"/>
<feGaussianBlur stdDeviation="8"/>
<feComposite in2="hardAlpha" operator="arithmetic" k2="-1" k3="1"/>
<feColorMatrix type="matrix" values="0 0 0 0 0.68776 0 0 0 0 0.0242277 0 0 0 0 0.501971 0 0 0 0.4 0"/>
<feBlend mode="normal" in2="shape" result="effect1_innerShadow_301_17"/>
</filter>
<radialGradient id="paint0_radial_301_17" cx="0" cy="0" r="1" gradientUnits="userSpaceOnUse" gradientTransform="translate(1.85185 45.2414) rotate(61.3895) scale(11.6019)">
<stop stop-color="#FFCE21"/>
<stop offset="1" stop-color="#F2911E"/>
</radialGradient>
<radialGradient id="paint1_radial_301_17" cx="0" cy="0" r="1" gradientUnits="userSpaceOnUse" gradientTransform="translate(90.7407 52.6488) rotate(118.611) scale(11.6019)">
<stop stop-color="#FFCE21"/>
<stop offset="1" stop-color="#F2911E"/>
</radialGradient>
<radialGradient id="paint2_radial_301_17" cx="0" cy="0" r="1" gradientUnits="userSpaceOnUse" gradientTransform="translate(34.2594 18.3896) rotate(78.559) scale(79.3546)">
<stop stop-color="#FFEA9F"/>
<stop offset="0.122763" stop-color="#FFE380"/>
<stop offset="0.415997" stop-color="#FFD250"/>
<stop offset="0.643669" stop-color="#FFC122"/>
<stop offset="1" stop-color="#FFB422"/>
</radialGradient>
<radialGradient id="paint3_radial_301_17" cx="0" cy="0" r="1" gradientUnits="userSpaceOnUse" gradientTransform="translate(34.2594 18.3896) rotate(78.559) scale(79.3546)">
<stop offset="0.557292" stop-color="#E35D12" stop-opacity="0"/>
<stop offset="1" stop-color="#FF24F6" stop-opacity="0.3"/>
</radialGradient>
<linearGradient id="paint4_linear_301_17" x1="50" y1="46.1673" x2="50" y2="75.7969" gradientUnits="userSpaceOnUse">
<stop stop-color="#60310F"/>
<stop offset="0.450755" stop-color="#7D3807"/>
</linearGradient>
<linearGradient id="paint5_linear_301_17" x1="50.0002" y1="57.2784" x2="50.0002" y2="75.797" gradientUnits="userSpaceOnUse">
<stop stop-color="#F04343"/>
<stop offset="0.231992" stop-color="#EF4343"/>
<stop offset="0.377834" stop-color="#E13737"/>
<stop offset="1" stop-color="#C72121"/>
</linearGradient>
<linearGradient id="paint6_linear_301_17" x1="25.7951" y1="4.0797" x2="33.4638" y2="32.6997" gradientUnits="userSpaceOnUse">
<stop stop-color="#F439F8"/>
<stop offset="1" stop-color="#B129E0"/>
</linearGradient>
<linearGradient id="paint7_linear_301_17" x1="74.2046" y1="4.0797" x2="66.536" y2="32.6997" gradientUnits="userSpaceOnUse">
<stop stop-color="#F439F8"/>
<stop offset="1" stop-color="#B129E0"/>
</linearGradient>
<clipPath id="clip0_301_17">
<rect width="100" height="100" fill="white"/>
</clipPath>
</defs>
</svg>
